<?xml version="1.0" standalone="no"?>
<!DOCTYPE svg PUBLIC "-//W3C//DTD SVG 20010904//EN"
 "http://www.w3.org/TR/2001/REC-SVG-20010904/DTD/svg10.dtd">
<svg version="1.0" xmlns="http://www.w3.org/2000/svg"
 width="200.000000pt" height="200.000000pt" viewBox="0 0 200.000000 200.000000"
 preserveAspectRatio="xMidYMid meet">
<metadata>
Created by potrace 1.14, written by Peter Selinger 2001-2017
</metadata>
<g transform="translate(0.000000,200.000000) scale(0.100000,-0.100000)"
fill="#000000" stroke="none">
<path d="M1377 1909 c-67 -18 -136 -92 -138 -149 -7 -142 -3 -292 8 -332 15
-53 33 -20 -135 -248 l-77 -105 -120 2 c-66 0 -127 2 -136 2 -8 1 -23 18 -32
40 -57 129 -198 203 -333 175 -77 -15 -111 -33 -162 -83 -65 -64 -87 -121 -87
-221 1 -72 5 -93 27 -136 54 -103 148 -159 268 -159 60 0 86 5 130 26 55 26
130 92 130 114 0 7 7 18 15 25 8 7 15 21 15 31 0 11 6 20 13 20 43 5 245 4
259 0 9 -4 66 -73 126 -156 l109 -149 -14 -35 c-11 -26 -14 -73 -11 -202 l3
-167 31 -39 c55 -69 91 -79 277 -78 131 1 168 5 192 18 48 27 62 40 85 85 20
38 22 57 22 196 0 140 -2 160 -22 201 -14 29 -38 57 -63 73 -39 26 -46 27
-201 30 l-161 4 -108 154 -107 154 107 155 108 154 148 0 c157 1 189 8 239 52
50 44 60 88 60 254 0 160 -5 183 -47 233 -49 58 -74 65 -241 67 -83 0 -162 -2
-177 -6z"/>
</g>
</svg>
